<svg xmlns="http://www.w3.org/2000/svg"  viewBox="0 0 48 48" width="48px" height="48px"><path d="M 20.5 3 C 18.203405 3 16.305701 4.7666235 16.050781 7 L 12.5 7 C 10.015 7 8 9.015 8 11.5 L 8 38.5 C 8 40.985 10.015 43 12.5 43 L 20 43 L 20 26 C 20 24.343 21.343 23 23 23 L 40 23 L 40 11.5 C 40 9.015 37.985 7 35.5 7 L 31.949219 7 C 31.694299 4.7666235 29.796595 3 27.5 3 L 20.5 3 z M 20.5 6 L 27.5 6 C 28.346499 6 29 6.6535009 29 7.5 C 29 8.3464991 28.346499 9 27.5 9 L 20.5 9 C 19.653501 9 19 8.3464991 19 7.5 C 19 6.6535009 19.653501 6 20.5 6 z M 23.5 25 A 1.5 1.5 0 0 0 23.5 28 A 1.5 1.5 0 0 0 23.5 25 z M 28.5 25 A 1.5 1.5 0 0 0 28.5 28 A 1.5 1.5 0 0 0 28.5 25 z M 33.5 25 A 1.5 1.5 0 0 0 33.5 28 A 1.5 1.5 0 0 0 33.5 25 z M 38.5 25 A 1.5 1.5 0 0 0 38.5 28 A 1.5 1.5 0 0 0 38.5 25 z M 43.5 25 A 1.5 1.5 0 0 0 43.5 28 A 1.5 1.5 0 0 0 43.5 25 z M 23.5 30 A 1.5 1.5 0 0 0 23.5 33 A 1.5 1.5 0 0 0 23.5 30 z M 43.5 30 A 1.5 1.5 0 0 0 43.5 33 A 1.5 1.5 0 0 0 43.5 30 z M 23.5 35 A 1.5 1.5 0 0 0 23.5 38 A 1.5 1.5 0 0 0 23.5 35 z M 43.5 35 A 1.5 1.5 0 0 0 43.5 38 A 1.5 1.5 0 0 0 43.5 35 z M 23.5 40 A 1.5 1.5 0 0 0 23.5 43 A 1.5 1.5 0 0 0 23.5 40 z M 43.5 40 A 1.5 1.5 0 0 0 43.5 43 A 1.5 1.5 0 0 0 43.5 40 z M 23.5 45 A 1.5 1.5 0 0 0 23.5 48 A 1.5 1.5 0 0 0 23.5 45 z M 28.5 45 A 1.5 1.5 0 0 0 28.5 48 A 1.5 1.5 0 0 0 28.5 45 z M 33.5 45 A 1.5 1.5 0 0 0 33.5 48 A 1.5 1.5 0 0 0 33.5 45 z M 38.5 45 A 1.5 1.5 0 0 0 38.5 48 A 1.5 1.5 0 0 0 38.5 45 z M 43.5 45 A 1.5 1.5 0 0 0 43.5 48 A 1.5 1.5 0 0 0 43.5 45 z"/></svg>