<?xml version="1.0" encoding="UTF-8" standalone="no"?>
<svg
   viewBox="0 0 48 48"
   width="48px"
   height="48px"
   version="1.1"
   id="svg76"
   sodipodi:docname="open.svg"
   inkscape:version="1.2.1 (9c6d41e, 2022-07-14)"
   xmlns:inkscape="http://www.inkscape.org/namespaces/inkscape"
   xmlns:sodipodi="http://sodipodi.sourceforge.net/DTD/sodipodi-0.dtd"
   xmlns="http://www.w3.org/2000/svg"
   xmlns:svg="http://www.w3.org/2000/svg">
  <defs
     id="defs80" />
  <sodipodi:namedview
     id="namedview78"
     pagecolor="#ffffff"
     bordercolor="#000000"
     borderopacity="0.25"
     inkscape:showpageshadow="2"
     inkscape:pageopacity="0.0"
     inkscape:pagecheckerboard="0"
     inkscape:deskcolor="#d1d1d1"
     showgrid="false"
     inkscape:zoom="4.9166667"
     inkscape:cx="18.711864"
     inkscape:cy="17.59322"
     inkscape:window-width="2254"
     inkscape:window-height="1502"
     inkscape:window-x="0"
     inkscape:window-y="0"
     inkscape:window-maximized="1"
     inkscape:current-layer="svg76" />
  <path
     d="M 24,44 C 35.028,44 44,35.028 44,24 44,12.972 35.028,4 24,4 12.972,4 4,12.972 4,24 4,35.028 12.972,44 24,44 Z M 15.5,22.5 H 24 V 18 c 0,-0.586 0.341,-1.118 0.873,-1.363 0.201,-0.092 0.415,-0.137 0.627,-0.137 0.352,0 0.699,0.124 0.977,0.361 l 7,6 C 33.809,23.146 34,23.562 34,24 c 0,0.438 -0.191,0.854 -0.524,1.139 l -7,6 c -0.445,0.381 -1.07,0.469 -1.603,0.224 C 24.341,31.118 24,30.586 24,30 V 25.5 H 15.5 C 14.671,25.5 14,24.829 14,24 c 0,-0.829 0.671,-1.5 1.5,-1.5 z"
     id="path74" />
</svg>
