<svg xmlns="http://www.w3.org/2000/svg"  viewBox="0 0 48 48" width="48px" height="48px"><path d="M 23.970703 1.9726562 A 2.0002 2.0002 0 0 0 22 4 L 22 7.1289062 C 14.230597 8.0473901 8.0473894 14.230601 7.1289062 22 L 4 22 A 2.0002 2.0002 0 1 0 4 26 L 7.1289062 26 C 8.0473894 33.769399 14.230597 39.95261 22 40.871094 L 22 44 A 2.0002 2.0002 0 1 0 26 44 L 26 40.871094 C 33.769403 39.95261 39.952611 33.769399 40.871094 26 L 44 26 A 2.0002 2.0002 0 1 0 44 22 L 40.871094 22 C 39.952611 14.230601 33.769403 8.0473901 26 7.1289062 L 26 4 A 2.0002 2.0002 0 0 0 23.970703 1.9726562 z M 23.761719 11.011719 A 2.0002 2.0002 0 0 0 24.25 11.011719 C 31.255834 11.143797 36.862354 16.754329 36.988281 23.761719 A 2.0002 2.0002 0 0 0 36.988281 24.25 C 36.856154 31.258448 31.241519 36.86641 24.230469 36.988281 A 2.0002 2.0002 0 0 0 23.970703 36.972656 A 2.0002 2.0002 0 0 0 23.759766 36.988281 C 16.749359 36.861269 11.137705 31.248944 11.011719 24.238281 A 2.0002 2.0002 0 0 0 11.011719 23.75 C 11.143797 16.74417 16.754325 11.137646 23.761719 11.011719 z M 24 20 C 21.795 20 20 21.795 20 24 C 20 26.205 21.795 28 24 28 C 26.205 28 28 26.205 28 24 C 28 21.795 26.205 20 24 20 z"/></svg>